<?xml version="1.0" encoding="UTF-8"?>
<svg id="Layer_1" data-name="Layer 1" xmlns="http://www.w3.org/2000/svg" viewBox="0 0 216 218.5">
  <path d="M85.18,6.36v2c4.15-.65,6.14,2.85,9.5,5,1.92,1.23,1.56,2.89,1.5,5h2.5l1.5,1.5v2.5c5.28.18,8.54,10.35,11.5,12,1.57.87.8-.5,2.5,2.5s2.82,5.76,4,9c1.09,2.99,3.68,8.37,7,8.5-.06.48.17,1.07,0,1.5-.21.54-1.16,3.43-1,4,.59,2.14,1.8,5.81,3,8,.76,1.4,2.83,1.74,2,4.5,1.78-.76,3.3.99,3.5,1,.18.01,1.75-1.78,3.5-1v3l1.5-1c.65,1.37,4.32,1.82,4.5,2s-.26,1.03,0,1.5c1.23,2.21,8.71,9.86,11,10.5v2c2.78.3,6.54,3.98,6,7h2l-1,2c3.1-.21,3.27,2.25,3,5l4,1-1,5h2l1,4.5-1,1.5,3,1.5v6.5l3,1.5-1,1,1,2-1,4c1.89,1.3.22,1.22,0,2-.7,2.44,3.15,4.69,4,7v2l-3,4c3.52,4.93-2.21,10.79-1,15,.17.59-1.1,10.43-3,11l1,2-6,10.5c2.28-2.15,3.45.62,5.5,0l3-2,1,1c1.25-2.19,2.62-1.56,4-2,.41-.13.62-.91,1-1,2.34-.55,3.55.95,5.5,1l1,5h-2v3l-2.5,1-2-1c-3.17.87-7.36,3.05-10,2-3.4,3.66-8.21,2.49-12,5-2.99,1.98-6.01,7.01-9,9-1.04.69-3.8,1.32-5,2-.67.38-1.29,1.49-2,2l-2.5-1-1-3.5c.01-.18,1.78-2.46,2-3,1.07-2.69,0-4.22,0-5-.01-1.47,3.15-3.88,2-9-.66-2.94,1-6.27,1-7,0-.49-1.63-6.78-2-9-.11-.66-1.93-.72,0-2l-1-2,3.5-4.5c1.81,2.1,4.75-.24,6.5,2.5.17.26-.12,1.51,1,2v2c-.12.41-.91.62-1,1-1.11,4.79.63,8.24,0,12-.28,1.66.19,3.75,0,5.5,2.01.28,3.32-1.24,3-3h3c.89-4.85,5.59-6.25,4-12.5l3-1.5-1-2.5,2-.5c.61-2.27-1.7-3.46,0-4.5l-1-1,1-3.5h2c-.06-.48.17-1.07,0-1.5-.91-2.27-.19-.9,0-2,.46-2.67-1.47-4.38-1-6,2.64-3.13,2.51-9.87,2-14-.12-.96-1.72-4.82-2-6-1.13-4.8-2.15-7.89-3-13-.1-.61-1.32-.66,0-3-1.33-1.2-2.1-2.89-4-2.5.77-3.37-.85-5.02-2-7.5-1.23-2.65-2.03-6.2-6-5.5.57-1.94-1.3-2.31-2-3.5-1.51-2.57-1.83-6.37-6-5.5v-3c-3.05-1.16-6.66-4.05-9.5-6-.9-.62-1.63-2.4-3-2-1.47.43-1.83,3.15-1.5,4.5.94,3.94-.38,7.12,0,12l-3,4,1,3.5-3,1.5c1.71,1.57,1.54,5.19-.5,6.5-1.12.72-4.11,3.07-4.5,4.5-.25.93.16,2.41,0,3.5h-5l1,2.5-2.5,2.5-2.5-1c1.13,4.7-5.09,4.23-5,8-5.97.42-12.76,3.02-17.5,7l-2-1c-4.9,3.17-10.62-.1-15,3l-5-2-1,1c-6.17-2.77-12.04-7.88-18.5-9-.2-3.27-4.2-3.79-3-8l-3-1.5c-.19-.65.22-1.47,0-2-1.26-3.06-1.35-1.85-2.5-2.5-3.22-1.83-.5-4.22-.5-4.5,0-.33-.88-.58-1-1-.41-1.42,1.67-5.07-1-7,1.69-.92.63-2.65,1-4,.15-.55,1.85-1.45,2-2,.23-.85-.23-2.15,0-3,.75-2.72,4.5-4.74,6-7,.8-1.21,1.57-4.95,3.5-5.5,3.7-1.06,3.01-1.88,6-4,1.72-1.22,11.15-8.77,12-9,3.56-.98,8.98.19,12-4l3,1,5-3c.4.11.62.91,1,1,2.15.49,7.12-1.9,9-3l.5,2c1.43-.16,3.16.25,4.5,0,.38-.07,3.33-1.48,4-2,1.45,2.5,7.32,2.59,10,2,.77-.17,1.08-2.04,3.5,0,.09-1.29-.59-2.29-1-3.5-1.61-4.78-3.25-10.66-6-15-.94-1.48-3.68-1.82-4-3-.98-3.56-1.23-7.12-5.5-9.5-1.56-.87-3.44-2.96-4.5-5.5-.92-2.21-3.12-2.98-5.5-4.5-1.56-1-1.7-2.23-1.5-4-.17-.17-.94.2-1.5,0-.85-.31-.69-1.85-2,0l-6-4-3,1-1-1-2,1-4.5-4.5,2-.5-1-1.5,1-2.5,10.5-2,3.5,1ZM108.18,118.36c.1-.1.3-1.27,1-2.5,1.68-2.97,3.47-4.7,5-8s5.97-5.81,5-10c-.09-.39-.89-.6-1-1,2.18-3.23,1.97-6.24,3-10,.28-1-2.66-4.28,0-6v-2l-6.5-5.5c-.4.11-.62.91-1,1-3.78.85-8.7-2.52-12-3-2.66-.39-6.19.96-8-1l-3,3c-2.91-1.91-5.63.61-8,1-1.51.25-3.71-.35-5,0-.88.24-2.15,3.16-5,2l-3,4c-7.22-1.79-8.99,5.62-15,6-3,4.15-4.87,8.7-9,11-.47.26-1.31-.19-1.5,0,.76,1.81-1,3.3-1,3.5,0,.27,1.5,2.24,1,5-.07.37-.88.59-1,1-.59,1.95.95,2.72,1,3,.27,1.51-.31,3.56,0,5,.07.32,1.62,2.36,2,3,.15.26-.14.77,0,1,1.85,2.9,7.59,4.05,10,8,.4.65,1.02,2.57,1,3.5,1.81-.76,3.21.96,3.5,1,4.58.68,10.49.25,15,1,.38.06.67,1,1,1s.62-.93,1-1c1.5-.26,3.02.62,4-1l1.5,1,1.5-3,1,1,2-1c1.67,2.21,2.04.4,3,0,.54-.23,1.32.18,1.5,0,.19-.19-.27-1.03,0-1.5,1.14-2.02,9.41-5.1,11.5-6.5,1.04-.7,2.02-2.46,3-3,.47-.26,1.31.19,1.5,0Z"/>
</svg>